<?xml version="1.0" encoding="UTF-8" standalone="no"?>
<!DOCTYPE svg PUBLIC "-//W3C//DTD SVG 1.1//EN" "http://www.w3.org/Graphics/SVG/1.1/DTD/svg11.dtd">
<svg width="100%" height="100%" viewBox="0 0 1203 631" version="1.1" xmlns="http://www.w3.org/2000/svg" xmlns:xlink="http://www.w3.org/1999/xlink" xml:space="preserve" xmlns:serif="http://www.serif.com/" style="fill-rule:evenodd;clip-rule:evenodd;stroke-linecap:round;stroke-linejoin:round;stroke-miterlimit:1.5;">
    <g transform="matrix(1,0,0,1,-155.295,-747.917)">
        <g transform="matrix(1.90476,0,0,1.90476,-1271.19,603.379)">
            <g transform="matrix(0.484276,0,0,0.484276,450.958,3.87322)">
                <g transform="matrix(1,0,0,1,556.553,-12.0541)">
                    <path d="M1361.86,380.078C1361.86,294.601 1292.47,225.204 1206.99,225.204L277.774,225.204C192.297,225.204 122.9,294.601 122.9,380.078L122.9,689.826C122.9,775.304 192.297,844.7 277.774,844.7L1206.99,844.7C1292.47,844.7 1361.86,775.304 1361.86,689.826L1361.86,380.078Z" style="fill:rgb(255,113,0);fill-opacity:0.54;"/>
                </g>
            </g>
            <g transform="matrix(0.484276,0,0,0.484276,435.958,-11.2471)">
                <g transform="matrix(1,0,0,1,556.553,-12.0541)">
                    <path d="M1361.86,380.078C1361.86,294.601 1292.47,225.204 1206.99,225.204L277.774,225.204C192.297,225.204 122.9,294.601 122.9,380.078L122.9,689.826C122.9,775.304 192.297,844.7 277.774,844.7L1206.99,844.7C1292.47,844.7 1361.86,775.304 1361.86,689.826L1361.86,380.078Z" style="fill:rgb(255,113,0);fill-opacity:0.49;"/>
                </g>
            </g>
            <g transform="matrix(0.484276,0,0,0.484276,686.793,-312.462)">
                <g transform="matrix(1,0,0,1,7.61817,578.963)">
                    <path d="M1361.86,380.078C1361.86,294.601 1292.47,225.204 1206.99,225.204L277.774,225.204C192.297,225.204 122.9,294.601 122.9,380.078L122.9,689.826C122.9,775.304 192.297,844.7 277.774,844.7L1206.99,844.7C1292.47,844.7 1361.86,775.304 1361.86,689.826L1361.86,380.078Z" style="fill:rgb(255,113,0);stroke:black;stroke-width:4.52px;"/>
                    <g>
                        <g transform="matrix(1.00774,0,0,1.00774,206.986,179.239)">
                            <path d="M692.004,131.704C692.004,117.738 680.666,106.4 666.7,106.4L410.984,106.4C397.019,106.4 385.68,117.738 385.68,131.704C385.68,145.669 397.019,157.008 410.984,157.008L666.7,157.008C680.666,157.008 692.004,145.669 692.004,131.704Z" style="fill:white;stroke:black;stroke-width:4.48px;"/>
                        </g>
                        <g transform="matrix(0.72377,0,0,0.72377,137.181,201.454)">
                            <circle cx="202.44" cy="152.684" r="35.232" style="fill:white;stroke:black;stroke-width:6.24px;"/>
                        </g>
                        <g transform="matrix(0.72377,0,0,0.72377,1069.78,201.454)">
                            <circle cx="202.44" cy="152.684" r="35.232" style="fill:white;stroke:black;stroke-width:6.24px;"/>
                        </g>
                    </g>
                </g>
                <g transform="matrix(3.62237,0,0,1.62243,263.183,-54.7957)">
                    <g>
                        <g>
                            <path d="M17.804,753.734C14.519,753.734 11.347,752.9 8.286,751.234C5.225,749.567 2.706,747.4 0.728,744.734L4.983,723.234C6.849,725.65 8.93,727.588 11.225,729.046C13.521,730.505 15.751,731.234 17.916,731.234C19.185,731.234 20.183,731.046 20.911,730.671C21.639,730.296 22.171,729.755 22.507,729.046C22.842,728.338 23.01,727.484 23.01,726.484C23.01,724.9 22.619,723.65 21.835,722.734C21.051,721.817 20.015,721.046 18.727,720.421C17.44,719.796 16.031,719.13 14.5,718.421C12.97,717.713 11.431,716.775 9.882,715.609C8.333,714.442 6.914,712.9 5.627,710.984C4.339,709.067 3.303,706.546 2.519,703.421C1.736,700.296 1.344,696.4 1.344,691.734C1.344,686.317 2.025,681.38 3.387,676.921C4.75,672.463 6.784,668.9 9.49,666.234C12.196,663.567 15.564,662.234 19.595,662.234C22.245,662.234 24.858,662.859 27.433,664.109C30.009,665.359 32.323,667.275 34.376,669.859L30.401,691.234C28.46,689.067 26.584,687.442 24.774,686.359C22.964,685.275 21.2,684.734 19.483,684.734C18.214,684.734 17.206,684.984 16.46,685.484C15.714,685.984 15.182,686.65 14.864,687.484C14.547,688.317 14.389,689.234 14.389,690.234C14.389,691.734 14.78,692.921 15.564,693.796C16.348,694.671 17.384,695.4 18.671,695.984C19.959,696.567 21.377,697.192 22.926,697.859C24.475,698.525 26.015,699.442 27.545,700.609C29.076,701.775 30.485,703.317 31.772,705.234C33.06,707.15 34.096,709.65 34.88,712.734C35.663,715.817 36.055,719.65 36.055,724.234C36.055,729.567 35.374,734.463 34.012,738.921C32.649,743.38 30.625,746.963 27.937,749.671C25.25,752.38 21.872,753.734 17.804,753.734Z" style="fill-rule:nonzero;"/>
                            <path d="M48.652,732.984L47.924,700.609L62.705,664.234L77.093,664.234L60.521,704.984L53.187,721.734L48.652,732.984ZM36.839,751.734L36.839,664.234L49.828,664.234L49.828,751.734L36.839,751.734ZM62.593,751.734L51.06,717.734L59.626,697.484L77.877,751.734L62.593,751.734Z" style="fill-rule:nonzero;"/>
                            <rect x="75.638" y="664.234" width="13.213" height="87.5" style="fill-rule:nonzero;"/>
                            <path d="M106.262,753.734C102.978,753.734 99.805,752.9 96.745,751.234C93.684,749.567 91.165,747.4 89.186,744.734L93.441,723.234C95.308,725.65 97.388,727.588 99.684,729.046C101.979,730.505 104.209,731.234 106.374,731.234C107.643,731.234 108.642,731.046 109.369,730.671C110.097,730.296 110.629,729.755 110.965,729.046C111.301,728.338 111.469,727.484 111.469,726.484C111.469,724.9 111.077,723.65 110.293,722.734C109.509,721.817 108.474,721.046 107.186,720.421C105.898,719.796 104.489,719.13 102.959,718.421C101.429,717.713 99.889,716.775 98.34,715.609C96.791,714.442 95.373,712.9 94.085,710.984C92.798,709.067 91.762,706.546 90.978,703.421C90.194,700.296 89.802,696.4 89.802,691.734C89.802,686.317 90.483,681.38 91.846,676.921C93.208,672.463 95.242,668.9 97.948,666.234C100.654,663.567 104.023,662.234 108.054,662.234C110.704,662.234 113.317,662.859 115.892,664.109C118.467,665.359 120.781,667.275 122.834,669.859L118.859,691.234C116.918,689.067 115.043,687.442 113.233,686.359C111.422,685.275 109.659,684.734 107.942,684.734C106.673,684.734 105.665,684.984 104.919,685.484C104.172,685.984 103.64,686.65 103.323,687.484C103.006,688.317 102.847,689.234 102.847,690.234C102.847,691.734 103.239,692.921 104.023,693.796C104.807,694.671 105.842,695.4 107.13,695.984C108.418,696.567 109.836,697.192 111.385,697.859C112.934,698.525 114.474,699.442 116.004,700.609C117.534,701.775 118.943,703.317 120.231,705.234C121.519,707.15 122.554,709.65 123.338,712.734C124.122,715.817 124.514,719.65 124.514,724.234C124.514,729.567 123.833,734.463 122.47,738.921C121.108,743.38 119.083,746.963 116.396,749.671C113.708,752.38 110.331,753.734 106.262,753.734Z" style="fill-rule:nonzero;"/>
                            <path d="M133.248,751.734L133.248,687.109L121.77,687.109L121.77,664.234L157.938,664.234L157.938,687.109L146.461,687.109L146.461,751.734L133.248,751.734Z" style="fill-rule:nonzero;"/>
                            <path d="M149.204,751.734L166.336,664.234L179.325,664.234L196.456,751.734L182.796,751.734L170.143,678.234L175.294,678.234L162.641,751.734L149.204,751.734ZM159.393,736.484L162.753,715.234L180.78,715.234L184.139,736.484L159.393,736.484Z" style="fill-rule:nonzero;"/>
                            <path d="M211.685,753.734C208.549,753.734 205.648,752.63 202.979,750.421C200.31,748.213 197.996,745.067 196.036,740.984C194.077,736.9 192.556,732.067 191.474,726.484C190.391,720.9 189.85,714.734 189.85,707.984C189.85,701.234 190.391,695.067 191.474,689.484C192.556,683.9 194.077,679.067 196.036,674.984C197.996,670.9 200.31,667.755 202.979,665.546C205.648,663.338 208.549,662.234 211.685,662.234C215.529,662.234 218.935,663.734 221.902,666.734C224.87,669.734 227.324,674.067 229.264,679.734L220.922,696.359C219.765,693.109 218.487,690.588 217.087,688.796C215.688,687.005 214.111,686.109 212.357,686.109C210.976,686.109 209.725,686.609 208.605,687.609C207.486,688.609 206.525,690.067 205.722,691.984C204.92,693.9 204.294,696.213 203.847,698.921C203.399,701.63 203.175,704.65 203.175,707.984C203.175,711.317 203.399,714.338 203.847,717.046C204.294,719.755 204.92,722.067 205.722,723.984C206.525,725.9 207.486,727.359 208.605,728.359C209.725,729.359 210.976,729.859 212.357,729.859C214.111,729.859 215.688,728.963 217.087,727.171C218.487,725.38 219.765,722.859 220.922,719.609L229.264,736.234C227.324,741.817 224.87,746.13 221.902,749.171C218.935,752.213 215.529,753.734 211.685,753.734Z" style="fill-rule:nonzero;"/>
                            <path d="M243.037,732.984L242.309,700.609L257.09,664.234L271.478,664.234L254.906,704.984L247.572,721.734L243.037,732.984ZM231.224,751.734L231.224,664.234L244.213,664.234L244.213,751.734L231.224,751.734ZM256.978,751.734L245.445,717.734L254.01,697.484L272.262,751.734L256.978,751.734Z" style="fill-rule:nonzero;"/>
                        </g>
                    </g>
                </g>
                <g transform="matrix(4.58246,0,0,5.58109,-1155.25,-3181.51)">
                    <path d="M326.471,792.694L332.52,792.694L332.52,793.297L326.471,793.297L326.471,792.694ZM326.567,797.347L325.753,797.347L325.753,788.173L333.223,788.173L333.223,788.776L326.567,788.776L326.567,797.347Z" style="fill-rule:nonzero;"/>
                    <path d="M335.792,797.347L335.792,788.173L339.798,788.173C340.735,788.173 341.538,788.296 342.209,788.54C342.879,788.785 343.395,789.136 343.757,789.595C344.118,790.054 344.299,790.611 344.299,791.266C344.299,791.904 344.118,792.452 343.757,792.911C343.395,793.369 342.879,793.723 342.209,793.972C341.538,794.221 340.735,794.346 339.798,794.346L336.239,794.346L336.606,794.031L336.606,797.347L335.792,797.347ZM343.549,797.347L340.644,794.018L341.57,794.018L344.475,797.347L343.549,797.347ZM336.606,794.07L336.239,793.756L339.798,793.756C341.001,793.756 341.913,793.537 342.536,793.101C343.158,792.664 343.469,792.052 343.469,791.266C343.469,790.471 343.158,789.857 342.536,789.425C341.913,788.992 341.001,788.776 339.798,788.776L336.239,788.776L336.606,788.448L336.606,794.07Z" style="fill-rule:nonzero;"/>
                    <path d="M347.938,792.393L353.987,792.393L353.987,792.983L347.938,792.983L347.938,792.393ZM348.034,796.744L354.929,796.744L354.929,797.347L347.22,797.347L347.22,788.173L354.69,788.173L354.69,788.776L348.034,788.776L348.034,796.744Z" style="fill-rule:nonzero;"/>
                    <path d="M358.6,792.393L364.649,792.393L364.649,792.983L358.6,792.983L358.6,792.393ZM358.696,796.744L365.591,796.744L365.591,797.347L357.882,797.347L357.882,788.173L365.351,788.173L365.351,788.776L358.696,788.776L358.696,796.744Z" style="fill-rule:nonzero;"/>
                    <path d="M372.533,797.347L372.533,788.173L376.54,788.173C377.476,788.173 378.279,788.296 378.95,788.54C379.62,788.785 380.136,789.136 380.498,789.595C380.859,790.054 381.04,790.611 381.04,791.266C381.04,791.904 380.859,792.454 380.498,792.917C380.136,793.38 379.62,793.734 378.95,793.979C378.279,794.223 377.476,794.346 376.54,794.346L372.98,794.346L373.347,794.031L373.347,797.347L372.533,797.347ZM373.347,794.07L372.98,793.743L376.54,793.743C377.742,793.743 378.654,793.527 379.277,793.094C379.899,792.662 380.21,792.052 380.21,791.266C380.21,790.471 379.899,789.857 379.277,789.425C378.654,788.992 377.742,788.776 376.54,788.776L372.98,788.776L373.347,788.448L373.347,794.07Z" style="fill-rule:nonzero;"/>
                    <path d="M388.606,797.412C387.776,797.412 387.007,797.296 386.299,797.065C385.592,796.833 384.975,796.506 384.448,796.082C383.921,795.658 383.514,795.165 383.227,794.601C382.94,794.038 382.796,793.424 382.796,792.76C382.796,792.096 382.94,791.482 383.227,790.919C383.514,790.355 383.921,789.862 384.448,789.438C384.975,789.014 385.592,788.687 386.299,788.455C387.007,788.223 387.776,788.108 388.606,788.108C389.436,788.108 390.204,788.223 390.912,788.455C391.62,788.687 392.234,789.012 392.755,789.431C393.277,789.851 393.684,790.342 393.976,790.906C394.269,791.469 394.415,792.087 394.415,792.76C394.415,793.433 394.269,794.051 393.976,794.614C393.684,795.178 393.277,795.669 392.755,796.088C392.234,796.508 391.62,796.833 390.912,797.065C390.204,797.296 389.436,797.412 388.606,797.412ZM388.606,796.796C389.319,796.796 389.978,796.696 390.585,796.495C391.191,796.294 391.718,796.01 392.165,795.643C392.612,795.276 392.96,794.848 393.21,794.359C393.46,793.869 393.585,793.336 393.585,792.76C393.585,792.175 393.46,791.639 393.21,791.155C392.96,790.67 392.612,790.244 392.165,789.877C391.718,789.51 391.191,789.226 390.585,789.025C389.978,788.824 389.319,788.724 388.606,788.724C387.893,788.724 387.233,788.824 386.627,789.025C386.02,789.226 385.491,789.51 385.038,789.877C384.586,790.244 384.235,790.67 383.985,791.155C383.735,791.639 383.61,792.175 383.61,792.76C383.61,793.336 383.735,793.869 383.985,794.359C384.235,794.848 384.586,795.276 385.038,795.643C385.491,796.01 386.02,796.294 386.627,796.495C387.233,796.696 387.893,796.796 388.606,796.796Z" style="fill-rule:nonzero;"/>
                    <path d="M399.379,797.347L395.58,788.173L396.442,788.173L400.049,796.94L399.618,796.94L403.337,788.173L404.119,788.173L407.806,796.94L407.391,796.94L411.03,788.173L411.828,788.173L408.046,797.347L407.184,797.347L403.608,788.868L403.816,788.868L400.241,797.347L399.379,797.347Z" style="fill-rule:nonzero;"/>
                    <path d="M413.887,797.347L413.887,788.173L418.308,788.173C419.489,788.173 420.527,788.37 421.42,788.763C422.314,789.156 423.008,789.698 423.503,790.388C423.998,791.078 424.245,791.869 424.245,792.76C424.245,793.651 423.998,794.442 423.503,795.132C423.008,795.822 422.314,796.364 421.42,796.757C420.527,797.15 419.489,797.347 418.308,797.347L413.887,797.347ZM414.701,796.744L418.244,796.744C419.298,796.744 420.213,796.573 420.989,796.233C421.766,795.892 422.367,795.422 422.793,794.824C423.219,794.225 423.431,793.537 423.431,792.76C423.431,791.982 423.219,791.294 422.793,790.696C422.367,790.097 421.766,789.628 420.989,789.287C420.213,788.946 419.298,788.776 418.244,788.776L414.701,788.776L414.701,796.744Z" style="fill-rule:nonzero;"/>
                    <path d="M427.789,792.393L433.838,792.393L433.838,792.983L427.789,792.983L427.789,792.393ZM427.884,796.744L434.779,796.744L434.779,797.347L427.07,797.347L427.07,788.173L434.54,788.173L434.54,788.776L427.884,788.776L427.884,796.744Z" style="fill-rule:nonzero;"/>
                    <path d="M437.732,797.347L437.732,788.173L441.738,788.173C442.674,788.173 443.478,788.296 444.148,788.54C444.818,788.785 445.335,789.136 445.696,789.595C446.058,790.054 446.239,790.611 446.239,791.266C446.239,791.904 446.058,792.452 445.696,792.911C445.335,793.369 444.818,793.723 444.148,793.972C443.478,794.221 442.674,794.346 441.738,794.346L438.179,794.346L438.546,794.031L438.546,797.347L437.732,797.347ZM445.489,797.347L442.584,794.018L443.51,794.018L446.415,797.347L445.489,797.347ZM438.546,794.07L438.179,793.756L441.738,793.756C442.94,793.756 443.853,793.537 444.475,793.101C445.098,792.664 445.409,792.052 445.409,791.266C445.409,790.471 445.098,789.857 444.475,789.425C443.853,788.992 442.94,788.776 441.738,788.776L438.179,788.776L438.546,788.448L438.546,794.07Z" style="fill-rule:nonzero;"/>
                    <rect x="453.15" y="788.173" width="0.814" height="9.173" style="fill-rule:nonzero;"/>
                    <path d="M457.715,797.347L457.715,788.173L458.401,788.173L466.365,796.521L465.998,796.521L465.998,788.173L466.812,788.173L466.812,797.347L466.142,797.347L458.161,788.999L458.529,788.999L458.529,797.347L457.715,797.347Z" style="fill-rule:nonzero;"/>
                    <path d="M473.675,797.412C472.845,797.412 472.06,797.296 471.321,797.065C470.581,796.833 470.009,796.534 469.605,796.167L469.972,795.669C470.355,795.992 470.879,796.265 471.544,796.488C472.209,796.711 472.914,796.822 473.659,796.822C474.404,796.822 475.013,796.742 475.487,796.58C475.96,796.418 476.311,796.202 476.54,795.931C476.769,795.66 476.883,795.359 476.883,795.027C476.883,794.634 476.755,794.319 476.5,794.083C476.245,793.848 475.909,793.66 475.495,793.52C475.08,793.38 474.627,793.262 474.138,793.166C473.648,793.07 473.154,792.967 472.654,792.858C472.153,792.749 471.696,792.607 471.281,792.432C470.866,792.258 470.533,792.019 470.283,791.718C470.033,791.417 469.908,791.026 469.908,790.545C469.908,790.108 470.047,789.707 470.323,789.34C470.6,788.973 471.031,788.676 471.616,788.448C472.201,788.221 472.951,788.108 473.867,788.108C474.484,788.108 475.093,788.182 475.694,788.331C476.295,788.479 476.809,788.68 477.234,788.933L476.931,789.471C476.463,789.209 475.96,789.014 475.423,788.887C474.885,788.761 474.367,788.697 473.867,788.697C473.154,788.697 472.563,788.78 472.095,788.946C471.627,789.112 471.281,789.333 471.057,789.608C470.834,789.883 470.722,790.191 470.722,790.532C470.722,790.925 470.847,791.24 471.097,791.476C471.347,791.712 471.68,791.899 472.095,792.039C472.51,792.179 472.967,792.297 473.468,792.393C473.968,792.489 474.462,792.592 474.952,792.701C475.441,792.81 475.894,792.952 476.308,793.127C476.723,793.302 477.059,793.537 477.314,793.834C477.569,794.132 477.697,794.516 477.697,794.988C477.697,795.416 477.553,795.815 477.266,796.187C476.979,796.558 476.54,796.855 475.949,797.078C475.359,797.301 474.601,797.412 473.675,797.412Z" style="fill-rule:nonzero;"/>
                    <rect x="480.331" y="788.173" width="0.814" height="9.173" style="fill-rule:nonzero;"/>
                    <path d="M484.895,797.347L484.895,788.173L489.316,788.173C490.497,788.173 491.535,788.37 492.429,788.763C493.322,789.156 494.017,789.698 494.511,790.388C495.006,791.078 495.254,791.869 495.254,792.76C495.254,793.651 495.006,794.442 494.511,795.132C494.017,795.822 493.322,796.364 492.429,796.757C491.535,797.15 490.497,797.347 489.316,797.347L484.895,797.347ZM485.709,796.744L489.252,796.744C490.306,796.744 491.221,796.573 491.998,796.233C492.774,795.892 493.376,795.422 493.801,794.824C494.227,794.225 494.44,793.537 494.44,792.76C494.44,791.982 494.227,791.294 493.801,790.696C493.376,790.097 492.774,789.628 491.998,789.287C491.221,788.946 490.306,788.776 489.252,788.776L485.709,788.776L485.709,796.744Z" style="fill-rule:nonzero;"/>
                    <path d="M498.797,792.393L504.846,792.393L504.846,792.983L498.797,792.983L498.797,792.393ZM498.893,796.744L505.788,796.744L505.788,797.347L498.079,797.347L498.079,788.173L505.548,788.173L505.548,788.776L498.893,788.776L498.893,796.744Z" style="fill-rule:nonzero;"/>
                </g>
            </g>
        </g>
    </g>
</svg>
